<?xml version="1.0" standalone="no"?>
<!DOCTYPE svg PUBLIC "-//W3C//DTD SVG 20010904//EN"
 "http://www.w3.org/TR/2001/REC-SVG-20010904/DTD/svg10.dtd">
<svg version="1.0" xmlns="http://www.w3.org/2000/svg"
 width="644.000000pt" height="644.000000pt" viewBox="0 0 644.000000 644.000000"
 preserveAspectRatio="xMidYMid meet">
<metadata>
Created by potrace 1.11, written by Peter Selinger 2001-2013
</metadata>
<g transform="translate(0.000000,644.000000) scale(0.100000,-0.100000)"
fill="#000000" stroke="none">
<path d="M1620 5478 c108 -102 243 -229 282 -266 l37 -35 1276 0 c701 0 1279
3 1283 7 4 4 45 43 92 86 47 43 130 121 185 174 l100 95 -1660 0 -1660 0 65
-61z"/>
<path d="M5199 5241 c-19 -20 -77 -74 -127 -121 -51 -47 -91 -88 -89 -92 1 -3
70 -77 152 -164 83 -87 166 -174 185 -194 66 -70 325 -343 360 -380 19 -21 63
-67 97 -103 l63 -65 246 0 246 0 -19 20 c-10 11 -36 39 -58 63 -22 23 -103
108 -180 190 -77 82 -162 172 -190 200 -27 29 -108 114 -180 190 -148 158
-288 305 -396 416 l-74 77 -36 -37z"/>
<path d="M1068 5138 c-69 -73 -140 -149 -158 -168 -18 -19 -95 -100 -170 -180
-76 -80 -156 -163 -177 -186 -21 -22 -104 -110 -186 -196 -218 -230 -257 -272
-257 -280 0 -3 108 -6 240 -6 l239 0 65 66 c77 80 126 132 225 238 94 100 370
390 478 503 46 47 83 91 83 97 0 6 -50 57 -112 115 -61 57 -117 110 -124 117
-7 6 -14 12 -17 12 -2 0 -60 -60 -129 -132z"/>
<path d="M112 3692 c-8 -2 667 -679 2370 -2377 279 -278 508 -505 510 -505 2
0 4 112 4 250 l0 250 -1194 1191 -1194 1192 -244 1 c-134 1 -248 0 -252 -2z"/>
<path d="M4757 2620 c-593 -591 -1131 -1128 -1195 -1192 l-116 -117 0 -250
c-1 -138 0 -251 2 -251 8 0 2890 2880 2883 2881 -3 0 -116 1 -251 2 l-245 2
-1078 -1075z"/>
</g>
</svg>
